<svg width="640" height="760" viewBox="0 0 640 760" fill="none" xmlns="http://www.w3.org/2000/svg">
  <rect width="640" height="760" rx="36" fill="#0C1715"/>
  <circle cx="320" cy="224" r="100" fill="#8B6048"/>
  <path d="M214 192C220 118 268 74 332 74C398 74 440 122 442 200C408 172 370 154 320 154C272 154 240 168 214 192Z" fill="#161717"/>
  <path d="M254 300C284 324 356 322 384 298V372C384 408 356 438 320 438C284 438 254 408 254 372V300Z" fill="#9E7358"/>
  <path d="M164 760V630C164 548 230 482 312 482H328C410 482 476 548 476 630V760H164Z" fill="#6A4B2B"/>
  <path d="M224 760L278 522H362L416 760H224Z" fill="#EADCCA"/>
  <text x="56" y="650" fill="#D5A55A" font-family="Manrope, sans-serif" font-size="22" font-weight="700" letter-spacing="3">PARTNER</text>
  <text x="56" y="688" fill="#F6F1E8" font-family="Cormorant Garamond, serif" font-size="44" font-weight="600">Aline Uwase</text>
</svg>
